%TF.GenerationSoftware,KiCad,Pcbnew,8.0.5*%
%TF.CreationDate,2024-11-06T15:04:28-06:00*%
%TF.ProjectId,ArduinoUnoR4Shield,41726475-696e-46f5-956e-6f5234536869,1.0*%
%TF.SameCoordinates,Original*%
%TF.FileFunction,Legend,Top*%
%TF.FilePolarity,Positive*%
%FSLAX46Y46*%
G04 Gerber Fmt 4.6, Leading zero omitted, Abs format (unit mm)*
G04 Created by KiCad (PCBNEW 8.0.5) date 2024-11-06 15:04:28*
%MOMM*%
%LPD*%
G01*
G04 APERTURE LIST*
%ADD10C,0.121920*%
%ADD11C,0.150000*%
%ADD12C,0.032512*%
%ADD13C,0.030480*%
%ADD14C,0.080000*%
%ADD15C,0.120000*%
%ADD16C,0.203200*%
%ADD17C,0.152400*%
%ADD18C,0.406400*%
%ADD19C,0.127000*%
%ADD20C,0.254000*%
G04 APERTURE END LIST*
D10*
X141569120Y-105914332D02*
X141545897Y-105937555D01*
X141545897Y-105937555D02*
X141476229Y-105960777D01*
X141476229Y-105960777D02*
X141429783Y-105960777D01*
X141429783Y-105960777D02*
X141360114Y-105937555D01*
X141360114Y-105937555D02*
X141313669Y-105891109D01*
X141313669Y-105891109D02*
X141290446Y-105844663D01*
X141290446Y-105844663D02*
X141267223Y-105751772D01*
X141267223Y-105751772D02*
X141267223Y-105682103D01*
X141267223Y-105682103D02*
X141290446Y-105589212D01*
X141290446Y-105589212D02*
X141313669Y-105542766D01*
X141313669Y-105542766D02*
X141360114Y-105496320D01*
X141360114Y-105496320D02*
X141429783Y-105473097D01*
X141429783Y-105473097D02*
X141476229Y-105473097D01*
X141476229Y-105473097D02*
X141545897Y-105496320D01*
X141545897Y-105496320D02*
X141569120Y-105519543D01*
X141801349Y-105960777D02*
X141894240Y-105960777D01*
X141894240Y-105960777D02*
X141940686Y-105937555D01*
X141940686Y-105937555D02*
X141963909Y-105914332D01*
X141963909Y-105914332D02*
X142010354Y-105844663D01*
X142010354Y-105844663D02*
X142033577Y-105751772D01*
X142033577Y-105751772D02*
X142033577Y-105565989D01*
X142033577Y-105565989D02*
X142010354Y-105519543D01*
X142010354Y-105519543D02*
X141987132Y-105496320D01*
X141987132Y-105496320D02*
X141940686Y-105473097D01*
X141940686Y-105473097D02*
X141847794Y-105473097D01*
X141847794Y-105473097D02*
X141801349Y-105496320D01*
X141801349Y-105496320D02*
X141778126Y-105519543D01*
X141778126Y-105519543D02*
X141754903Y-105565989D01*
X141754903Y-105565989D02*
X141754903Y-105682103D01*
X141754903Y-105682103D02*
X141778126Y-105728549D01*
X141778126Y-105728549D02*
X141801349Y-105751772D01*
X141801349Y-105751772D02*
X141847794Y-105774995D01*
X141847794Y-105774995D02*
X141940686Y-105774995D01*
X141940686Y-105774995D02*
X141987132Y-105751772D01*
X141987132Y-105751772D02*
X142010354Y-105728549D01*
X142010354Y-105728549D02*
X142033577Y-105682103D01*
X137719120Y-83864332D02*
X137695897Y-83887555D01*
X137695897Y-83887555D02*
X137626229Y-83910777D01*
X137626229Y-83910777D02*
X137579783Y-83910777D01*
X137579783Y-83910777D02*
X137510114Y-83887555D01*
X137510114Y-83887555D02*
X137463669Y-83841109D01*
X137463669Y-83841109D02*
X137440446Y-83794663D01*
X137440446Y-83794663D02*
X137417223Y-83701772D01*
X137417223Y-83701772D02*
X137417223Y-83632103D01*
X137417223Y-83632103D02*
X137440446Y-83539212D01*
X137440446Y-83539212D02*
X137463669Y-83492766D01*
X137463669Y-83492766D02*
X137510114Y-83446320D01*
X137510114Y-83446320D02*
X137579783Y-83423097D01*
X137579783Y-83423097D02*
X137626229Y-83423097D01*
X137626229Y-83423097D02*
X137695897Y-83446320D01*
X137695897Y-83446320D02*
X137719120Y-83469543D01*
X137997794Y-83632103D02*
X137951349Y-83608880D01*
X137951349Y-83608880D02*
X137928126Y-83585657D01*
X137928126Y-83585657D02*
X137904903Y-83539212D01*
X137904903Y-83539212D02*
X137904903Y-83515989D01*
X137904903Y-83515989D02*
X137928126Y-83469543D01*
X137928126Y-83469543D02*
X137951349Y-83446320D01*
X137951349Y-83446320D02*
X137997794Y-83423097D01*
X137997794Y-83423097D02*
X138090686Y-83423097D01*
X138090686Y-83423097D02*
X138137132Y-83446320D01*
X138137132Y-83446320D02*
X138160354Y-83469543D01*
X138160354Y-83469543D02*
X138183577Y-83515989D01*
X138183577Y-83515989D02*
X138183577Y-83539212D01*
X138183577Y-83539212D02*
X138160354Y-83585657D01*
X138160354Y-83585657D02*
X138137132Y-83608880D01*
X138137132Y-83608880D02*
X138090686Y-83632103D01*
X138090686Y-83632103D02*
X137997794Y-83632103D01*
X137997794Y-83632103D02*
X137951349Y-83655326D01*
X137951349Y-83655326D02*
X137928126Y-83678549D01*
X137928126Y-83678549D02*
X137904903Y-83724995D01*
X137904903Y-83724995D02*
X137904903Y-83817886D01*
X137904903Y-83817886D02*
X137928126Y-83864332D01*
X137928126Y-83864332D02*
X137951349Y-83887555D01*
X137951349Y-83887555D02*
X137997794Y-83910777D01*
X137997794Y-83910777D02*
X138090686Y-83910777D01*
X138090686Y-83910777D02*
X138137132Y-83887555D01*
X138137132Y-83887555D02*
X138160354Y-83864332D01*
X138160354Y-83864332D02*
X138183577Y-83817886D01*
X138183577Y-83817886D02*
X138183577Y-83724995D01*
X138183577Y-83724995D02*
X138160354Y-83678549D01*
X138160354Y-83678549D02*
X138137132Y-83655326D01*
X138137132Y-83655326D02*
X138090686Y-83632103D01*
D11*
X151261905Y-105425819D02*
X151261905Y-106235342D01*
X151261905Y-106235342D02*
X151309524Y-106330580D01*
X151309524Y-106330580D02*
X151357143Y-106378200D01*
X151357143Y-106378200D02*
X151452381Y-106425819D01*
X151452381Y-106425819D02*
X151642857Y-106425819D01*
X151642857Y-106425819D02*
X151738095Y-106378200D01*
X151738095Y-106378200D02*
X151785714Y-106330580D01*
X151785714Y-106330580D02*
X151833333Y-106235342D01*
X151833333Y-106235342D02*
X151833333Y-105425819D01*
X152833333Y-106425819D02*
X152261905Y-106425819D01*
X152547619Y-106425819D02*
X152547619Y-105425819D01*
X152547619Y-105425819D02*
X152452381Y-105568676D01*
X152452381Y-105568676D02*
X152357143Y-105663914D01*
X152357143Y-105663914D02*
X152261905Y-105711533D01*
X153785714Y-106425819D02*
X153214286Y-106425819D01*
X153500000Y-106425819D02*
X153500000Y-105425819D01*
X153500000Y-105425819D02*
X153404762Y-105568676D01*
X153404762Y-105568676D02*
X153309524Y-105663914D01*
X153309524Y-105663914D02*
X153214286Y-105711533D01*
D10*
X141569120Y-98861932D02*
X141545897Y-98885155D01*
X141545897Y-98885155D02*
X141476229Y-98908377D01*
X141476229Y-98908377D02*
X141429783Y-98908377D01*
X141429783Y-98908377D02*
X141360114Y-98885155D01*
X141360114Y-98885155D02*
X141313669Y-98838709D01*
X141313669Y-98838709D02*
X141290446Y-98792263D01*
X141290446Y-98792263D02*
X141267223Y-98699372D01*
X141267223Y-98699372D02*
X141267223Y-98629703D01*
X141267223Y-98629703D02*
X141290446Y-98536812D01*
X141290446Y-98536812D02*
X141313669Y-98490366D01*
X141313669Y-98490366D02*
X141360114Y-98443920D01*
X141360114Y-98443920D02*
X141429783Y-98420697D01*
X141429783Y-98420697D02*
X141476229Y-98420697D01*
X141476229Y-98420697D02*
X141545897Y-98443920D01*
X141545897Y-98443920D02*
X141569120Y-98467143D01*
X141754903Y-98467143D02*
X141778126Y-98443920D01*
X141778126Y-98443920D02*
X141824572Y-98420697D01*
X141824572Y-98420697D02*
X141940686Y-98420697D01*
X141940686Y-98420697D02*
X141987132Y-98443920D01*
X141987132Y-98443920D02*
X142010354Y-98467143D01*
X142010354Y-98467143D02*
X142033577Y-98513589D01*
X142033577Y-98513589D02*
X142033577Y-98560035D01*
X142033577Y-98560035D02*
X142010354Y-98629703D01*
X142010354Y-98629703D02*
X141731680Y-98908377D01*
X141731680Y-98908377D02*
X142033577Y-98908377D01*
X160903661Y-78941297D02*
X160903661Y-79289640D01*
X160903661Y-79289640D02*
X160880438Y-79359309D01*
X160880438Y-79359309D02*
X160833992Y-79405755D01*
X160833992Y-79405755D02*
X160764324Y-79428977D01*
X160764324Y-79428977D02*
X160717878Y-79428977D01*
X161391341Y-79428977D02*
X161112667Y-79428977D01*
X161252004Y-79428977D02*
X161252004Y-78941297D01*
X161252004Y-78941297D02*
X161205558Y-79010966D01*
X161205558Y-79010966D02*
X161159113Y-79057412D01*
X161159113Y-79057412D02*
X161112667Y-79080635D01*
D11*
X131744819Y-117601904D02*
X132554342Y-117601904D01*
X132554342Y-117601904D02*
X132649580Y-117554285D01*
X132649580Y-117554285D02*
X132697200Y-117506666D01*
X132697200Y-117506666D02*
X132744819Y-117411428D01*
X132744819Y-117411428D02*
X132744819Y-117220952D01*
X132744819Y-117220952D02*
X132697200Y-117125714D01*
X132697200Y-117125714D02*
X132649580Y-117078095D01*
X132649580Y-117078095D02*
X132554342Y-117030476D01*
X132554342Y-117030476D02*
X131744819Y-117030476D01*
X131840057Y-116601904D02*
X131792438Y-116554285D01*
X131792438Y-116554285D02*
X131744819Y-116459047D01*
X131744819Y-116459047D02*
X131744819Y-116220952D01*
X131744819Y-116220952D02*
X131792438Y-116125714D01*
X131792438Y-116125714D02*
X131840057Y-116078095D01*
X131840057Y-116078095D02*
X131935295Y-116030476D01*
X131935295Y-116030476D02*
X132030533Y-116030476D01*
X132030533Y-116030476D02*
X132173390Y-116078095D01*
X132173390Y-116078095D02*
X132744819Y-116649523D01*
X132744819Y-116649523D02*
X132744819Y-116030476D01*
D10*
X137719120Y-91263177D02*
X137556560Y-91030949D01*
X137440446Y-91263177D02*
X137440446Y-90775497D01*
X137440446Y-90775497D02*
X137626229Y-90775497D01*
X137626229Y-90775497D02*
X137672674Y-90798720D01*
X137672674Y-90798720D02*
X137695897Y-90821943D01*
X137695897Y-90821943D02*
X137719120Y-90868389D01*
X137719120Y-90868389D02*
X137719120Y-90938057D01*
X137719120Y-90938057D02*
X137695897Y-90984503D01*
X137695897Y-90984503D02*
X137672674Y-91007726D01*
X137672674Y-91007726D02*
X137626229Y-91030949D01*
X137626229Y-91030949D02*
X137440446Y-91030949D01*
X137881680Y-90775497D02*
X138183577Y-90775497D01*
X138183577Y-90775497D02*
X138021017Y-90961280D01*
X138021017Y-90961280D02*
X138090686Y-90961280D01*
X138090686Y-90961280D02*
X138137132Y-90984503D01*
X138137132Y-90984503D02*
X138160354Y-91007726D01*
X138160354Y-91007726D02*
X138183577Y-91054172D01*
X138183577Y-91054172D02*
X138183577Y-91170286D01*
X138183577Y-91170286D02*
X138160354Y-91216732D01*
X138160354Y-91216732D02*
X138137132Y-91239955D01*
X138137132Y-91239955D02*
X138090686Y-91263177D01*
X138090686Y-91263177D02*
X137951349Y-91263177D01*
X137951349Y-91263177D02*
X137904903Y-91239955D01*
X137904903Y-91239955D02*
X137881680Y-91216732D01*
D12*
X108839665Y-110415590D02*
X109142336Y-110415590D01*
X109142336Y-110415590D02*
X109177944Y-110397785D01*
X109177944Y-110397785D02*
X109195749Y-110379981D01*
X109195749Y-110379981D02*
X109213553Y-110344373D01*
X109213553Y-110344373D02*
X109213553Y-110273156D01*
X109213553Y-110273156D02*
X109195749Y-110237548D01*
X109195749Y-110237548D02*
X109177944Y-110219743D01*
X109177944Y-110219743D02*
X109142336Y-110201939D01*
X109142336Y-110201939D02*
X108839665Y-110201939D01*
X109213553Y-110006093D02*
X109213553Y-109934877D01*
X109213553Y-109934877D02*
X109195749Y-109899268D01*
X109195749Y-109899268D02*
X109177944Y-109881464D01*
X109177944Y-109881464D02*
X109124532Y-109845856D01*
X109124532Y-109845856D02*
X109053315Y-109828051D01*
X109053315Y-109828051D02*
X108910881Y-109828051D01*
X108910881Y-109828051D02*
X108875273Y-109845856D01*
X108875273Y-109845856D02*
X108857469Y-109863660D01*
X108857469Y-109863660D02*
X108839665Y-109899268D01*
X108839665Y-109899268D02*
X108839665Y-109970485D01*
X108839665Y-109970485D02*
X108857469Y-110006093D01*
X108857469Y-110006093D02*
X108875273Y-110023898D01*
X108875273Y-110023898D02*
X108910881Y-110041702D01*
X108910881Y-110041702D02*
X108999902Y-110041702D01*
X108999902Y-110041702D02*
X109035511Y-110023898D01*
X109035511Y-110023898D02*
X109053315Y-110006093D01*
X109053315Y-110006093D02*
X109071119Y-109970485D01*
X109071119Y-109970485D02*
X109071119Y-109899268D01*
X109071119Y-109899268D02*
X109053315Y-109863660D01*
X109053315Y-109863660D02*
X109035511Y-109845856D01*
X109035511Y-109845856D02*
X108999902Y-109828051D01*
D10*
X137719120Y-78962732D02*
X137695897Y-78985955D01*
X137695897Y-78985955D02*
X137626229Y-79009177D01*
X137626229Y-79009177D02*
X137579783Y-79009177D01*
X137579783Y-79009177D02*
X137510114Y-78985955D01*
X137510114Y-78985955D02*
X137463669Y-78939509D01*
X137463669Y-78939509D02*
X137440446Y-78893063D01*
X137440446Y-78893063D02*
X137417223Y-78800172D01*
X137417223Y-78800172D02*
X137417223Y-78730503D01*
X137417223Y-78730503D02*
X137440446Y-78637612D01*
X137440446Y-78637612D02*
X137463669Y-78591166D01*
X137463669Y-78591166D02*
X137510114Y-78544720D01*
X137510114Y-78544720D02*
X137579783Y-78521497D01*
X137579783Y-78521497D02*
X137626229Y-78521497D01*
X137626229Y-78521497D02*
X137695897Y-78544720D01*
X137695897Y-78544720D02*
X137719120Y-78567943D01*
X138137132Y-78684057D02*
X138137132Y-79009177D01*
X138021017Y-78498275D02*
X137904903Y-78846617D01*
X137904903Y-78846617D02*
X138206800Y-78846617D01*
D11*
X149524819Y-69341904D02*
X150334342Y-69341904D01*
X150334342Y-69341904D02*
X150429580Y-69294285D01*
X150429580Y-69294285D02*
X150477200Y-69246666D01*
X150477200Y-69246666D02*
X150524819Y-69151428D01*
X150524819Y-69151428D02*
X150524819Y-68960952D01*
X150524819Y-68960952D02*
X150477200Y-68865714D01*
X150477200Y-68865714D02*
X150429580Y-68818095D01*
X150429580Y-68818095D02*
X150334342Y-68770476D01*
X150334342Y-68770476D02*
X149524819Y-68770476D01*
X149524819Y-67865714D02*
X149524819Y-68056190D01*
X149524819Y-68056190D02*
X149572438Y-68151428D01*
X149572438Y-68151428D02*
X149620057Y-68199047D01*
X149620057Y-68199047D02*
X149762914Y-68294285D01*
X149762914Y-68294285D02*
X149953390Y-68341904D01*
X149953390Y-68341904D02*
X150334342Y-68341904D01*
X150334342Y-68341904D02*
X150429580Y-68294285D01*
X150429580Y-68294285D02*
X150477200Y-68246666D01*
X150477200Y-68246666D02*
X150524819Y-68151428D01*
X150524819Y-68151428D02*
X150524819Y-67960952D01*
X150524819Y-67960952D02*
X150477200Y-67865714D01*
X150477200Y-67865714D02*
X150429580Y-67818095D01*
X150429580Y-67818095D02*
X150334342Y-67770476D01*
X150334342Y-67770476D02*
X150096247Y-67770476D01*
X150096247Y-67770476D02*
X150001009Y-67818095D01*
X150001009Y-67818095D02*
X149953390Y-67865714D01*
X149953390Y-67865714D02*
X149905771Y-67960952D01*
X149905771Y-67960952D02*
X149905771Y-68151428D01*
X149905771Y-68151428D02*
X149953390Y-68246666D01*
X149953390Y-68246666D02*
X150001009Y-68294285D01*
X150001009Y-68294285D02*
X150096247Y-68341904D01*
D10*
X137719120Y-76511932D02*
X137695897Y-76535155D01*
X137695897Y-76535155D02*
X137626229Y-76558377D01*
X137626229Y-76558377D02*
X137579783Y-76558377D01*
X137579783Y-76558377D02*
X137510114Y-76535155D01*
X137510114Y-76535155D02*
X137463669Y-76488709D01*
X137463669Y-76488709D02*
X137440446Y-76442263D01*
X137440446Y-76442263D02*
X137417223Y-76349372D01*
X137417223Y-76349372D02*
X137417223Y-76279703D01*
X137417223Y-76279703D02*
X137440446Y-76186812D01*
X137440446Y-76186812D02*
X137463669Y-76140366D01*
X137463669Y-76140366D02*
X137510114Y-76093920D01*
X137510114Y-76093920D02*
X137579783Y-76070697D01*
X137579783Y-76070697D02*
X137626229Y-76070697D01*
X137626229Y-76070697D02*
X137695897Y-76093920D01*
X137695897Y-76093920D02*
X137719120Y-76117143D01*
X138183577Y-76558377D02*
X137904903Y-76558377D01*
X138044240Y-76558377D02*
X138044240Y-76070697D01*
X138044240Y-76070697D02*
X137997794Y-76140366D01*
X137997794Y-76140366D02*
X137951349Y-76186812D01*
X137951349Y-76186812D02*
X137904903Y-76210035D01*
X137719120Y-98615577D02*
X137556560Y-98383349D01*
X137440446Y-98615577D02*
X137440446Y-98127897D01*
X137440446Y-98127897D02*
X137626229Y-98127897D01*
X137626229Y-98127897D02*
X137672674Y-98151120D01*
X137672674Y-98151120D02*
X137695897Y-98174343D01*
X137695897Y-98174343D02*
X137719120Y-98220789D01*
X137719120Y-98220789D02*
X137719120Y-98290457D01*
X137719120Y-98290457D02*
X137695897Y-98336903D01*
X137695897Y-98336903D02*
X137672674Y-98360126D01*
X137672674Y-98360126D02*
X137626229Y-98383349D01*
X137626229Y-98383349D02*
X137440446Y-98383349D01*
X138137132Y-98127897D02*
X138044240Y-98127897D01*
X138044240Y-98127897D02*
X137997794Y-98151120D01*
X137997794Y-98151120D02*
X137974572Y-98174343D01*
X137974572Y-98174343D02*
X137928126Y-98244012D01*
X137928126Y-98244012D02*
X137904903Y-98336903D01*
X137904903Y-98336903D02*
X137904903Y-98522686D01*
X137904903Y-98522686D02*
X137928126Y-98569132D01*
X137928126Y-98569132D02*
X137951349Y-98592355D01*
X137951349Y-98592355D02*
X137997794Y-98615577D01*
X137997794Y-98615577D02*
X138090686Y-98615577D01*
X138090686Y-98615577D02*
X138137132Y-98592355D01*
X138137132Y-98592355D02*
X138160354Y-98569132D01*
X138160354Y-98569132D02*
X138183577Y-98522686D01*
X138183577Y-98522686D02*
X138183577Y-98406572D01*
X138183577Y-98406572D02*
X138160354Y-98360126D01*
X138160354Y-98360126D02*
X138137132Y-98336903D01*
X138137132Y-98336903D02*
X138090686Y-98313680D01*
X138090686Y-98313680D02*
X137997794Y-98313680D01*
X137997794Y-98313680D02*
X137951349Y-98336903D01*
X137951349Y-98336903D02*
X137928126Y-98360126D01*
X137928126Y-98360126D02*
X137904903Y-98406572D01*
D11*
X122600819Y-117601904D02*
X123410342Y-117601904D01*
X123410342Y-117601904D02*
X123505580Y-117554285D01*
X123505580Y-117554285D02*
X123553200Y-117506666D01*
X123553200Y-117506666D02*
X123600819Y-117411428D01*
X123600819Y-117411428D02*
X123600819Y-117220952D01*
X123600819Y-117220952D02*
X123553200Y-117125714D01*
X123553200Y-117125714D02*
X123505580Y-117078095D01*
X123505580Y-117078095D02*
X123410342Y-117030476D01*
X123410342Y-117030476D02*
X122600819Y-117030476D01*
X123600819Y-116030476D02*
X123600819Y-116601904D01*
X123600819Y-116316190D02*
X122600819Y-116316190D01*
X122600819Y-116316190D02*
X122743676Y-116411428D01*
X122743676Y-116411428D02*
X122838914Y-116506666D01*
X122838914Y-116506666D02*
X122886533Y-116601904D01*
D13*
X163315423Y-88996518D02*
X163148509Y-88996518D01*
X163148509Y-88996518D02*
X163148509Y-88645998D01*
X163615868Y-88996518D02*
X163415571Y-88996518D01*
X163515720Y-88996518D02*
X163515720Y-88645998D01*
X163515720Y-88645998D02*
X163482337Y-88696072D01*
X163482337Y-88696072D02*
X163448954Y-88729455D01*
X163448954Y-88729455D02*
X163415571Y-88746147D01*
D11*
X154858819Y-117855904D02*
X155668342Y-117855904D01*
X155668342Y-117855904D02*
X155763580Y-117808285D01*
X155763580Y-117808285D02*
X155811200Y-117760666D01*
X155811200Y-117760666D02*
X155858819Y-117665428D01*
X155858819Y-117665428D02*
X155858819Y-117474952D01*
X155858819Y-117474952D02*
X155811200Y-117379714D01*
X155811200Y-117379714D02*
X155763580Y-117332095D01*
X155763580Y-117332095D02*
X155668342Y-117284476D01*
X155668342Y-117284476D02*
X154858819Y-117284476D01*
X154858819Y-116903523D02*
X154858819Y-116284476D01*
X154858819Y-116284476D02*
X155239771Y-116617809D01*
X155239771Y-116617809D02*
X155239771Y-116474952D01*
X155239771Y-116474952D02*
X155287390Y-116379714D01*
X155287390Y-116379714D02*
X155335009Y-116332095D01*
X155335009Y-116332095D02*
X155430247Y-116284476D01*
X155430247Y-116284476D02*
X155668342Y-116284476D01*
X155668342Y-116284476D02*
X155763580Y-116332095D01*
X155763580Y-116332095D02*
X155811200Y-116379714D01*
X155811200Y-116379714D02*
X155858819Y-116474952D01*
X155858819Y-116474952D02*
X155858819Y-116760666D01*
X155858819Y-116760666D02*
X155811200Y-116855904D01*
X155811200Y-116855904D02*
X155763580Y-116903523D01*
D10*
X164130461Y-96133697D02*
X164130461Y-96482040D01*
X164130461Y-96482040D02*
X164107238Y-96551709D01*
X164107238Y-96551709D02*
X164060792Y-96598155D01*
X164060792Y-96598155D02*
X163991124Y-96621377D01*
X163991124Y-96621377D02*
X163944678Y-96621377D01*
X164594918Y-96133697D02*
X164362690Y-96133697D01*
X164362690Y-96133697D02*
X164339467Y-96365926D01*
X164339467Y-96365926D02*
X164362690Y-96342703D01*
X164362690Y-96342703D02*
X164409136Y-96319480D01*
X164409136Y-96319480D02*
X164525250Y-96319480D01*
X164525250Y-96319480D02*
X164571696Y-96342703D01*
X164571696Y-96342703D02*
X164594918Y-96365926D01*
X164594918Y-96365926D02*
X164618141Y-96412372D01*
X164618141Y-96412372D02*
X164618141Y-96528486D01*
X164618141Y-96528486D02*
X164594918Y-96574932D01*
X164594918Y-96574932D02*
X164571696Y-96598155D01*
X164571696Y-96598155D02*
X164525250Y-96621377D01*
X164525250Y-96621377D02*
X164409136Y-96621377D01*
X164409136Y-96621377D02*
X164362690Y-96598155D01*
X164362690Y-96598155D02*
X164339467Y-96574932D01*
X137089400Y-103817097D02*
X137089400Y-104165440D01*
X137089400Y-104165440D02*
X137066177Y-104235109D01*
X137066177Y-104235109D02*
X137019731Y-104281555D01*
X137019731Y-104281555D02*
X136950063Y-104304777D01*
X136950063Y-104304777D02*
X136903617Y-104304777D01*
X137321629Y-104304777D02*
X137321629Y-103817097D01*
X137321629Y-103817097D02*
X137507412Y-103817097D01*
X137507412Y-103817097D02*
X137553857Y-103840320D01*
X137553857Y-103840320D02*
X137577080Y-103863543D01*
X137577080Y-103863543D02*
X137600303Y-103909989D01*
X137600303Y-103909989D02*
X137600303Y-103979657D01*
X137600303Y-103979657D02*
X137577080Y-104026103D01*
X137577080Y-104026103D02*
X137553857Y-104049326D01*
X137553857Y-104049326D02*
X137507412Y-104072549D01*
X137507412Y-104072549D02*
X137321629Y-104072549D01*
X137786086Y-103863543D02*
X137809309Y-103840320D01*
X137809309Y-103840320D02*
X137855755Y-103817097D01*
X137855755Y-103817097D02*
X137971869Y-103817097D01*
X137971869Y-103817097D02*
X138018315Y-103840320D01*
X138018315Y-103840320D02*
X138041537Y-103863543D01*
X138041537Y-103863543D02*
X138064760Y-103909989D01*
X138064760Y-103909989D02*
X138064760Y-103956435D01*
X138064760Y-103956435D02*
X138041537Y-104026103D01*
X138041537Y-104026103D02*
X137762863Y-104304777D01*
X137762863Y-104304777D02*
X138064760Y-104304777D01*
X141569120Y-101212732D02*
X141545897Y-101235955D01*
X141545897Y-101235955D02*
X141476229Y-101259177D01*
X141476229Y-101259177D02*
X141429783Y-101259177D01*
X141429783Y-101259177D02*
X141360114Y-101235955D01*
X141360114Y-101235955D02*
X141313669Y-101189509D01*
X141313669Y-101189509D02*
X141290446Y-101143063D01*
X141290446Y-101143063D02*
X141267223Y-101050172D01*
X141267223Y-101050172D02*
X141267223Y-100980503D01*
X141267223Y-100980503D02*
X141290446Y-100887612D01*
X141290446Y-100887612D02*
X141313669Y-100841166D01*
X141313669Y-100841166D02*
X141360114Y-100794720D01*
X141360114Y-100794720D02*
X141429783Y-100771497D01*
X141429783Y-100771497D02*
X141476229Y-100771497D01*
X141476229Y-100771497D02*
X141545897Y-100794720D01*
X141545897Y-100794720D02*
X141569120Y-100817943D01*
X141731680Y-100771497D02*
X142033577Y-100771497D01*
X142033577Y-100771497D02*
X141871017Y-100957280D01*
X141871017Y-100957280D02*
X141940686Y-100957280D01*
X141940686Y-100957280D02*
X141987132Y-100980503D01*
X141987132Y-100980503D02*
X142010354Y-101003726D01*
X142010354Y-101003726D02*
X142033577Y-101050172D01*
X142033577Y-101050172D02*
X142033577Y-101166286D01*
X142033577Y-101166286D02*
X142010354Y-101212732D01*
X142010354Y-101212732D02*
X141987132Y-101235955D01*
X141987132Y-101235955D02*
X141940686Y-101259177D01*
X141940686Y-101259177D02*
X141801349Y-101259177D01*
X141801349Y-101259177D02*
X141754903Y-101235955D01*
X141754903Y-101235955D02*
X141731680Y-101212732D01*
X137192046Y-107507827D02*
X137192046Y-107020147D01*
X137192046Y-107020147D02*
X137308160Y-107020147D01*
X137308160Y-107020147D02*
X137377829Y-107043370D01*
X137377829Y-107043370D02*
X137424274Y-107089816D01*
X137424274Y-107089816D02*
X137447497Y-107136262D01*
X137447497Y-107136262D02*
X137470720Y-107229153D01*
X137470720Y-107229153D02*
X137470720Y-107298822D01*
X137470720Y-107298822D02*
X137447497Y-107391713D01*
X137447497Y-107391713D02*
X137424274Y-107438159D01*
X137424274Y-107438159D02*
X137377829Y-107484605D01*
X137377829Y-107484605D02*
X137308160Y-107507827D01*
X137308160Y-107507827D02*
X137192046Y-107507827D01*
X137935177Y-107507827D02*
X137656503Y-107507827D01*
X137795840Y-107507827D02*
X137795840Y-107020147D01*
X137795840Y-107020147D02*
X137749394Y-107089816D01*
X137749394Y-107089816D02*
X137702949Y-107136262D01*
X137702949Y-107136262D02*
X137656503Y-107159485D01*
D12*
X156559909Y-105835665D02*
X156559909Y-106138336D01*
X156559909Y-106138336D02*
X156577714Y-106173944D01*
X156577714Y-106173944D02*
X156595518Y-106191749D01*
X156595518Y-106191749D02*
X156631126Y-106209553D01*
X156631126Y-106209553D02*
X156702343Y-106209553D01*
X156702343Y-106209553D02*
X156737951Y-106191749D01*
X156737951Y-106191749D02*
X156755756Y-106173944D01*
X156755756Y-106173944D02*
X156773560Y-106138336D01*
X156773560Y-106138336D02*
X156773560Y-105835665D01*
X157005014Y-105995902D02*
X156969406Y-105978098D01*
X156969406Y-105978098D02*
X156951601Y-105960294D01*
X156951601Y-105960294D02*
X156933797Y-105924686D01*
X156933797Y-105924686D02*
X156933797Y-105906881D01*
X156933797Y-105906881D02*
X156951601Y-105871273D01*
X156951601Y-105871273D02*
X156969406Y-105853469D01*
X156969406Y-105853469D02*
X157005014Y-105835665D01*
X157005014Y-105835665D02*
X157076231Y-105835665D01*
X157076231Y-105835665D02*
X157111839Y-105853469D01*
X157111839Y-105853469D02*
X157129643Y-105871273D01*
X157129643Y-105871273D02*
X157147448Y-105906881D01*
X157147448Y-105906881D02*
X157147448Y-105924686D01*
X157147448Y-105924686D02*
X157129643Y-105960294D01*
X157129643Y-105960294D02*
X157111839Y-105978098D01*
X157111839Y-105978098D02*
X157076231Y-105995902D01*
X157076231Y-105995902D02*
X157005014Y-105995902D01*
X157005014Y-105995902D02*
X156969406Y-106013707D01*
X156969406Y-106013707D02*
X156951601Y-106031511D01*
X156951601Y-106031511D02*
X156933797Y-106067119D01*
X156933797Y-106067119D02*
X156933797Y-106138336D01*
X156933797Y-106138336D02*
X156951601Y-106173944D01*
X156951601Y-106173944D02*
X156969406Y-106191749D01*
X156969406Y-106191749D02*
X157005014Y-106209553D01*
X157005014Y-106209553D02*
X157076231Y-106209553D01*
X157076231Y-106209553D02*
X157111839Y-106191749D01*
X157111839Y-106191749D02*
X157129643Y-106173944D01*
X157129643Y-106173944D02*
X157147448Y-106138336D01*
X157147448Y-106138336D02*
X157147448Y-106067119D01*
X157147448Y-106067119D02*
X157129643Y-106031511D01*
X157129643Y-106031511D02*
X157111839Y-106013707D01*
X157111839Y-106013707D02*
X157076231Y-105995902D01*
D10*
X137719120Y-86361577D02*
X137556560Y-86129349D01*
X137440446Y-86361577D02*
X137440446Y-85873897D01*
X137440446Y-85873897D02*
X137626229Y-85873897D01*
X137626229Y-85873897D02*
X137672674Y-85897120D01*
X137672674Y-85897120D02*
X137695897Y-85920343D01*
X137695897Y-85920343D02*
X137719120Y-85966789D01*
X137719120Y-85966789D02*
X137719120Y-86036457D01*
X137719120Y-86036457D02*
X137695897Y-86082903D01*
X137695897Y-86082903D02*
X137672674Y-86106126D01*
X137672674Y-86106126D02*
X137626229Y-86129349D01*
X137626229Y-86129349D02*
X137440446Y-86129349D01*
X138183577Y-86361577D02*
X137904903Y-86361577D01*
X138044240Y-86361577D02*
X138044240Y-85873897D01*
X138044240Y-85873897D02*
X137997794Y-85943566D01*
X137997794Y-85943566D02*
X137951349Y-85990012D01*
X137951349Y-85990012D02*
X137904903Y-86013235D01*
X141569120Y-103563532D02*
X141545897Y-103586755D01*
X141545897Y-103586755D02*
X141476229Y-103609977D01*
X141476229Y-103609977D02*
X141429783Y-103609977D01*
X141429783Y-103609977D02*
X141360114Y-103586755D01*
X141360114Y-103586755D02*
X141313669Y-103540309D01*
X141313669Y-103540309D02*
X141290446Y-103493863D01*
X141290446Y-103493863D02*
X141267223Y-103400972D01*
X141267223Y-103400972D02*
X141267223Y-103331303D01*
X141267223Y-103331303D02*
X141290446Y-103238412D01*
X141290446Y-103238412D02*
X141313669Y-103191966D01*
X141313669Y-103191966D02*
X141360114Y-103145520D01*
X141360114Y-103145520D02*
X141429783Y-103122297D01*
X141429783Y-103122297D02*
X141476229Y-103122297D01*
X141476229Y-103122297D02*
X141545897Y-103145520D01*
X141545897Y-103145520D02*
X141569120Y-103168743D01*
X141731680Y-103122297D02*
X142056800Y-103122297D01*
X142056800Y-103122297D02*
X141847794Y-103609977D01*
X149730461Y-102700097D02*
X149730461Y-103048440D01*
X149730461Y-103048440D02*
X149707238Y-103118109D01*
X149707238Y-103118109D02*
X149660792Y-103164555D01*
X149660792Y-103164555D02*
X149591124Y-103187777D01*
X149591124Y-103187777D02*
X149544678Y-103187777D01*
X149916244Y-102700097D02*
X150218141Y-102700097D01*
X150218141Y-102700097D02*
X150055581Y-102885880D01*
X150055581Y-102885880D02*
X150125250Y-102885880D01*
X150125250Y-102885880D02*
X150171696Y-102909103D01*
X150171696Y-102909103D02*
X150194918Y-102932326D01*
X150194918Y-102932326D02*
X150218141Y-102978772D01*
X150218141Y-102978772D02*
X150218141Y-103094886D01*
X150218141Y-103094886D02*
X150194918Y-103141332D01*
X150194918Y-103141332D02*
X150171696Y-103164555D01*
X150171696Y-103164555D02*
X150125250Y-103187777D01*
X150125250Y-103187777D02*
X149985913Y-103187777D01*
X149985913Y-103187777D02*
X149939467Y-103164555D01*
X149939467Y-103164555D02*
X149916244Y-103141332D01*
X137089400Y-100581897D02*
X137089400Y-100930240D01*
X137089400Y-100930240D02*
X137066177Y-100999909D01*
X137066177Y-100999909D02*
X137019731Y-101046355D01*
X137019731Y-101046355D02*
X136950063Y-101069577D01*
X136950063Y-101069577D02*
X136903617Y-101069577D01*
X137321629Y-101069577D02*
X137321629Y-100581897D01*
X137321629Y-100581897D02*
X137507412Y-100581897D01*
X137507412Y-100581897D02*
X137553857Y-100605120D01*
X137553857Y-100605120D02*
X137577080Y-100628343D01*
X137577080Y-100628343D02*
X137600303Y-100674789D01*
X137600303Y-100674789D02*
X137600303Y-100744457D01*
X137600303Y-100744457D02*
X137577080Y-100790903D01*
X137577080Y-100790903D02*
X137553857Y-100814126D01*
X137553857Y-100814126D02*
X137507412Y-100837349D01*
X137507412Y-100837349D02*
X137321629Y-100837349D01*
X138064760Y-101069577D02*
X137786086Y-101069577D01*
X137925423Y-101069577D02*
X137925423Y-100581897D01*
X137925423Y-100581897D02*
X137878977Y-100651566D01*
X137878977Y-100651566D02*
X137832532Y-100698012D01*
X137832532Y-100698012D02*
X137786086Y-100721235D01*
D14*
X160143678Y-102926249D02*
X160143678Y-103671011D01*
X160143678Y-103671011D02*
X160187488Y-103758630D01*
X160187488Y-103758630D02*
X160231297Y-103802440D01*
X160231297Y-103802440D02*
X160318916Y-103846249D01*
X160318916Y-103846249D02*
X160494154Y-103846249D01*
X160494154Y-103846249D02*
X160581773Y-103802440D01*
X160581773Y-103802440D02*
X160625583Y-103758630D01*
X160625583Y-103758630D02*
X160669392Y-103671011D01*
X160669392Y-103671011D02*
X160669392Y-102926249D01*
X161589393Y-103846249D02*
X161063679Y-103846249D01*
X161326536Y-103846249D02*
X161326536Y-102926249D01*
X161326536Y-102926249D02*
X161238917Y-103057678D01*
X161238917Y-103057678D02*
X161151298Y-103145297D01*
X161151298Y-103145297D02*
X161063679Y-103189106D01*
X162158916Y-102926249D02*
X162246535Y-102926249D01*
X162246535Y-102926249D02*
X162334154Y-102970059D01*
X162334154Y-102970059D02*
X162377964Y-103013868D01*
X162377964Y-103013868D02*
X162421773Y-103101487D01*
X162421773Y-103101487D02*
X162465583Y-103276725D01*
X162465583Y-103276725D02*
X162465583Y-103495773D01*
X162465583Y-103495773D02*
X162421773Y-103671011D01*
X162421773Y-103671011D02*
X162377964Y-103758630D01*
X162377964Y-103758630D02*
X162334154Y-103802440D01*
X162334154Y-103802440D02*
X162246535Y-103846249D01*
X162246535Y-103846249D02*
X162158916Y-103846249D01*
X162158916Y-103846249D02*
X162071297Y-103802440D01*
X162071297Y-103802440D02*
X162027488Y-103758630D01*
X162027488Y-103758630D02*
X161983678Y-103671011D01*
X161983678Y-103671011D02*
X161939869Y-103495773D01*
X161939869Y-103495773D02*
X161939869Y-103276725D01*
X161939869Y-103276725D02*
X161983678Y-103101487D01*
X161983678Y-103101487D02*
X162027488Y-103013868D01*
X162027488Y-103013868D02*
X162071297Y-102970059D01*
X162071297Y-102970059D02*
X162158916Y-102926249D01*
D10*
X137719120Y-81413532D02*
X137695897Y-81436755D01*
X137695897Y-81436755D02*
X137626229Y-81459977D01*
X137626229Y-81459977D02*
X137579783Y-81459977D01*
X137579783Y-81459977D02*
X137510114Y-81436755D01*
X137510114Y-81436755D02*
X137463669Y-81390309D01*
X137463669Y-81390309D02*
X137440446Y-81343863D01*
X137440446Y-81343863D02*
X137417223Y-81250972D01*
X137417223Y-81250972D02*
X137417223Y-81181303D01*
X137417223Y-81181303D02*
X137440446Y-81088412D01*
X137440446Y-81088412D02*
X137463669Y-81041966D01*
X137463669Y-81041966D02*
X137510114Y-80995520D01*
X137510114Y-80995520D02*
X137579783Y-80972297D01*
X137579783Y-80972297D02*
X137626229Y-80972297D01*
X137626229Y-80972297D02*
X137695897Y-80995520D01*
X137695897Y-80995520D02*
X137719120Y-81018743D01*
X138160354Y-80972297D02*
X137928126Y-80972297D01*
X137928126Y-80972297D02*
X137904903Y-81204526D01*
X137904903Y-81204526D02*
X137928126Y-81181303D01*
X137928126Y-81181303D02*
X137974572Y-81158080D01*
X137974572Y-81158080D02*
X138090686Y-81158080D01*
X138090686Y-81158080D02*
X138137132Y-81181303D01*
X138137132Y-81181303D02*
X138160354Y-81204526D01*
X138160354Y-81204526D02*
X138183577Y-81250972D01*
X138183577Y-81250972D02*
X138183577Y-81367086D01*
X138183577Y-81367086D02*
X138160354Y-81413532D01*
X138160354Y-81413532D02*
X138137132Y-81436755D01*
X138137132Y-81436755D02*
X138090686Y-81459977D01*
X138090686Y-81459977D02*
X137974572Y-81459977D01*
X137974572Y-81459977D02*
X137928126Y-81436755D01*
X137928126Y-81436755D02*
X137904903Y-81413532D01*
X160903661Y-85317897D02*
X160903661Y-85666240D01*
X160903661Y-85666240D02*
X160880438Y-85735909D01*
X160880438Y-85735909D02*
X160833992Y-85782355D01*
X160833992Y-85782355D02*
X160764324Y-85805577D01*
X160764324Y-85805577D02*
X160717878Y-85805577D01*
X161112667Y-85364343D02*
X161135890Y-85341120D01*
X161135890Y-85341120D02*
X161182336Y-85317897D01*
X161182336Y-85317897D02*
X161298450Y-85317897D01*
X161298450Y-85317897D02*
X161344896Y-85341120D01*
X161344896Y-85341120D02*
X161368118Y-85364343D01*
X161368118Y-85364343D02*
X161391341Y-85410789D01*
X161391341Y-85410789D02*
X161391341Y-85457235D01*
X161391341Y-85457235D02*
X161368118Y-85526903D01*
X161368118Y-85526903D02*
X161089444Y-85805577D01*
X161089444Y-85805577D02*
X161391341Y-85805577D01*
D11*
X117012819Y-76961904D02*
X117822342Y-76961904D01*
X117822342Y-76961904D02*
X117917580Y-76914285D01*
X117917580Y-76914285D02*
X117965200Y-76866666D01*
X117965200Y-76866666D02*
X118012819Y-76771428D01*
X118012819Y-76771428D02*
X118012819Y-76580952D01*
X118012819Y-76580952D02*
X117965200Y-76485714D01*
X117965200Y-76485714D02*
X117917580Y-76438095D01*
X117917580Y-76438095D02*
X117822342Y-76390476D01*
X117822342Y-76390476D02*
X117012819Y-76390476D01*
X117346152Y-75485714D02*
X118012819Y-75485714D01*
X116965200Y-75723809D02*
X117679485Y-75961904D01*
X117679485Y-75961904D02*
X117679485Y-75342857D01*
D10*
X137719120Y-96164777D02*
X137556560Y-95932549D01*
X137440446Y-96164777D02*
X137440446Y-95677097D01*
X137440446Y-95677097D02*
X137626229Y-95677097D01*
X137626229Y-95677097D02*
X137672674Y-95700320D01*
X137672674Y-95700320D02*
X137695897Y-95723543D01*
X137695897Y-95723543D02*
X137719120Y-95769989D01*
X137719120Y-95769989D02*
X137719120Y-95839657D01*
X137719120Y-95839657D02*
X137695897Y-95886103D01*
X137695897Y-95886103D02*
X137672674Y-95909326D01*
X137672674Y-95909326D02*
X137626229Y-95932549D01*
X137626229Y-95932549D02*
X137440446Y-95932549D01*
X138160354Y-95677097D02*
X137928126Y-95677097D01*
X137928126Y-95677097D02*
X137904903Y-95909326D01*
X137904903Y-95909326D02*
X137928126Y-95886103D01*
X137928126Y-95886103D02*
X137974572Y-95862880D01*
X137974572Y-95862880D02*
X138090686Y-95862880D01*
X138090686Y-95862880D02*
X138137132Y-95886103D01*
X138137132Y-95886103D02*
X138160354Y-95909326D01*
X138160354Y-95909326D02*
X138183577Y-95955772D01*
X138183577Y-95955772D02*
X138183577Y-96071886D01*
X138183577Y-96071886D02*
X138160354Y-96118332D01*
X138160354Y-96118332D02*
X138137132Y-96141555D01*
X138137132Y-96141555D02*
X138090686Y-96164777D01*
X138090686Y-96164777D02*
X137974572Y-96164777D01*
X137974572Y-96164777D02*
X137928126Y-96141555D01*
X137928126Y-96141555D02*
X137904903Y-96118332D01*
X160009120Y-89234932D02*
X159985897Y-89258155D01*
X159985897Y-89258155D02*
X159916229Y-89281377D01*
X159916229Y-89281377D02*
X159869783Y-89281377D01*
X159869783Y-89281377D02*
X159800114Y-89258155D01*
X159800114Y-89258155D02*
X159753669Y-89211709D01*
X159753669Y-89211709D02*
X159730446Y-89165263D01*
X159730446Y-89165263D02*
X159707223Y-89072372D01*
X159707223Y-89072372D02*
X159707223Y-89002703D01*
X159707223Y-89002703D02*
X159730446Y-88909812D01*
X159730446Y-88909812D02*
X159753669Y-88863366D01*
X159753669Y-88863366D02*
X159800114Y-88816920D01*
X159800114Y-88816920D02*
X159869783Y-88793697D01*
X159869783Y-88793697D02*
X159916229Y-88793697D01*
X159916229Y-88793697D02*
X159985897Y-88816920D01*
X159985897Y-88816920D02*
X160009120Y-88840143D01*
X160427132Y-88793697D02*
X160334240Y-88793697D01*
X160334240Y-88793697D02*
X160287794Y-88816920D01*
X160287794Y-88816920D02*
X160264572Y-88840143D01*
X160264572Y-88840143D02*
X160218126Y-88909812D01*
X160218126Y-88909812D02*
X160194903Y-89002703D01*
X160194903Y-89002703D02*
X160194903Y-89188486D01*
X160194903Y-89188486D02*
X160218126Y-89234932D01*
X160218126Y-89234932D02*
X160241349Y-89258155D01*
X160241349Y-89258155D02*
X160287794Y-89281377D01*
X160287794Y-89281377D02*
X160380686Y-89281377D01*
X160380686Y-89281377D02*
X160427132Y-89258155D01*
X160427132Y-89258155D02*
X160450354Y-89234932D01*
X160450354Y-89234932D02*
X160473577Y-89188486D01*
X160473577Y-89188486D02*
X160473577Y-89072372D01*
X160473577Y-89072372D02*
X160450354Y-89025926D01*
X160450354Y-89025926D02*
X160427132Y-89002703D01*
X160427132Y-89002703D02*
X160380686Y-88979480D01*
X160380686Y-88979480D02*
X160287794Y-88979480D01*
X160287794Y-88979480D02*
X160241349Y-89002703D01*
X160241349Y-89002703D02*
X160218126Y-89025926D01*
X160218126Y-89025926D02*
X160194903Y-89072372D01*
X137719120Y-93713977D02*
X137556560Y-93481749D01*
X137440446Y-93713977D02*
X137440446Y-93226297D01*
X137440446Y-93226297D02*
X137626229Y-93226297D01*
X137626229Y-93226297D02*
X137672674Y-93249520D01*
X137672674Y-93249520D02*
X137695897Y-93272743D01*
X137695897Y-93272743D02*
X137719120Y-93319189D01*
X137719120Y-93319189D02*
X137719120Y-93388857D01*
X137719120Y-93388857D02*
X137695897Y-93435303D01*
X137695897Y-93435303D02*
X137672674Y-93458526D01*
X137672674Y-93458526D02*
X137626229Y-93481749D01*
X137626229Y-93481749D02*
X137440446Y-93481749D01*
X138137132Y-93388857D02*
X138137132Y-93713977D01*
X138021017Y-93203075D02*
X137904903Y-93551417D01*
X137904903Y-93551417D02*
X138206800Y-93551417D01*
D11*
X148519905Y-81568819D02*
X148519905Y-82378342D01*
X148519905Y-82378342D02*
X148567524Y-82473580D01*
X148567524Y-82473580D02*
X148615143Y-82521200D01*
X148615143Y-82521200D02*
X148710381Y-82568819D01*
X148710381Y-82568819D02*
X148900857Y-82568819D01*
X148900857Y-82568819D02*
X148996095Y-82521200D01*
X148996095Y-82521200D02*
X149043714Y-82473580D01*
X149043714Y-82473580D02*
X149091333Y-82378342D01*
X149091333Y-82378342D02*
X149091333Y-81568819D01*
X150091333Y-82568819D02*
X149519905Y-82568819D01*
X149805619Y-82568819D02*
X149805619Y-81568819D01*
X149805619Y-81568819D02*
X149710381Y-81711676D01*
X149710381Y-81711676D02*
X149615143Y-81806914D01*
X149615143Y-81806914D02*
X149519905Y-81854533D01*
X150472286Y-81664057D02*
X150519905Y-81616438D01*
X150519905Y-81616438D02*
X150615143Y-81568819D01*
X150615143Y-81568819D02*
X150853238Y-81568819D01*
X150853238Y-81568819D02*
X150948476Y-81616438D01*
X150948476Y-81616438D02*
X150996095Y-81664057D01*
X150996095Y-81664057D02*
X151043714Y-81759295D01*
X151043714Y-81759295D02*
X151043714Y-81854533D01*
X151043714Y-81854533D02*
X150996095Y-81997390D01*
X150996095Y-81997390D02*
X150424667Y-82568819D01*
X150424667Y-82568819D02*
X151043714Y-82568819D01*
D10*
X164130461Y-93254097D02*
X164130461Y-93602440D01*
X164130461Y-93602440D02*
X164107238Y-93672109D01*
X164107238Y-93672109D02*
X164060792Y-93718555D01*
X164060792Y-93718555D02*
X163991124Y-93741777D01*
X163991124Y-93741777D02*
X163944678Y-93741777D01*
X164571696Y-93416657D02*
X164571696Y-93741777D01*
X164455581Y-93230875D02*
X164339467Y-93579217D01*
X164339467Y-93579217D02*
X164641364Y-93579217D01*
D11*
X171196095Y-85770819D02*
X171196095Y-86580342D01*
X171196095Y-86580342D02*
X171243714Y-86675580D01*
X171243714Y-86675580D02*
X171291333Y-86723200D01*
X171291333Y-86723200D02*
X171386571Y-86770819D01*
X171386571Y-86770819D02*
X171577047Y-86770819D01*
X171577047Y-86770819D02*
X171672285Y-86723200D01*
X171672285Y-86723200D02*
X171719904Y-86675580D01*
X171719904Y-86675580D02*
X171767523Y-86580342D01*
X171767523Y-86580342D02*
X171767523Y-85770819D01*
X172148476Y-85770819D02*
X172815142Y-85770819D01*
X172815142Y-85770819D02*
X172386571Y-86770819D01*
D10*
X141336891Y-108265132D02*
X141313668Y-108288355D01*
X141313668Y-108288355D02*
X141244000Y-108311577D01*
X141244000Y-108311577D02*
X141197554Y-108311577D01*
X141197554Y-108311577D02*
X141127885Y-108288355D01*
X141127885Y-108288355D02*
X141081440Y-108241909D01*
X141081440Y-108241909D02*
X141058217Y-108195463D01*
X141058217Y-108195463D02*
X141034994Y-108102572D01*
X141034994Y-108102572D02*
X141034994Y-108032903D01*
X141034994Y-108032903D02*
X141058217Y-107940012D01*
X141058217Y-107940012D02*
X141081440Y-107893566D01*
X141081440Y-107893566D02*
X141127885Y-107847120D01*
X141127885Y-107847120D02*
X141197554Y-107823897D01*
X141197554Y-107823897D02*
X141244000Y-107823897D01*
X141244000Y-107823897D02*
X141313668Y-107847120D01*
X141313668Y-107847120D02*
X141336891Y-107870343D01*
X141801348Y-108311577D02*
X141522674Y-108311577D01*
X141662011Y-108311577D02*
X141662011Y-107823897D01*
X141662011Y-107823897D02*
X141615565Y-107893566D01*
X141615565Y-107893566D02*
X141569120Y-107940012D01*
X141569120Y-107940012D02*
X141522674Y-107963235D01*
X142103245Y-107823897D02*
X142149691Y-107823897D01*
X142149691Y-107823897D02*
X142196137Y-107847120D01*
X142196137Y-107847120D02*
X142219360Y-107870343D01*
X142219360Y-107870343D02*
X142242582Y-107916789D01*
X142242582Y-107916789D02*
X142265805Y-108009680D01*
X142265805Y-108009680D02*
X142265805Y-108125795D01*
X142265805Y-108125795D02*
X142242582Y-108218686D01*
X142242582Y-108218686D02*
X142219360Y-108265132D01*
X142219360Y-108265132D02*
X142196137Y-108288355D01*
X142196137Y-108288355D02*
X142149691Y-108311577D01*
X142149691Y-108311577D02*
X142103245Y-108311577D01*
X142103245Y-108311577D02*
X142056800Y-108288355D01*
X142056800Y-108288355D02*
X142033577Y-108265132D01*
X142033577Y-108265132D02*
X142010354Y-108218686D01*
X142010354Y-108218686D02*
X141987131Y-108125795D01*
X141987131Y-108125795D02*
X141987131Y-108009680D01*
X141987131Y-108009680D02*
X142010354Y-107916789D01*
X142010354Y-107916789D02*
X142033577Y-107870343D01*
X142033577Y-107870343D02*
X142056800Y-107847120D01*
X142056800Y-107847120D02*
X142103245Y-107823897D01*
X137719120Y-88812377D02*
X137556560Y-88580149D01*
X137440446Y-88812377D02*
X137440446Y-88324697D01*
X137440446Y-88324697D02*
X137626229Y-88324697D01*
X137626229Y-88324697D02*
X137672674Y-88347920D01*
X137672674Y-88347920D02*
X137695897Y-88371143D01*
X137695897Y-88371143D02*
X137719120Y-88417589D01*
X137719120Y-88417589D02*
X137719120Y-88487257D01*
X137719120Y-88487257D02*
X137695897Y-88533703D01*
X137695897Y-88533703D02*
X137672674Y-88556926D01*
X137672674Y-88556926D02*
X137626229Y-88580149D01*
X137626229Y-88580149D02*
X137440446Y-88580149D01*
X137904903Y-88371143D02*
X137928126Y-88347920D01*
X137928126Y-88347920D02*
X137974572Y-88324697D01*
X137974572Y-88324697D02*
X138090686Y-88324697D01*
X138090686Y-88324697D02*
X138137132Y-88347920D01*
X138137132Y-88347920D02*
X138160354Y-88371143D01*
X138160354Y-88371143D02*
X138183577Y-88417589D01*
X138183577Y-88417589D02*
X138183577Y-88464035D01*
X138183577Y-88464035D02*
X138160354Y-88533703D01*
X138160354Y-88533703D02*
X137881680Y-88812377D01*
X137881680Y-88812377D02*
X138183577Y-88812377D01*
D11*
X122854819Y-69341904D02*
X123664342Y-69341904D01*
X123664342Y-69341904D02*
X123759580Y-69294285D01*
X123759580Y-69294285D02*
X123807200Y-69246666D01*
X123807200Y-69246666D02*
X123854819Y-69151428D01*
X123854819Y-69151428D02*
X123854819Y-68960952D01*
X123854819Y-68960952D02*
X123807200Y-68865714D01*
X123807200Y-68865714D02*
X123759580Y-68818095D01*
X123759580Y-68818095D02*
X123664342Y-68770476D01*
X123664342Y-68770476D02*
X122854819Y-68770476D01*
X122854819Y-67818095D02*
X122854819Y-68294285D01*
X122854819Y-68294285D02*
X123331009Y-68341904D01*
X123331009Y-68341904D02*
X123283390Y-68294285D01*
X123283390Y-68294285D02*
X123235771Y-68199047D01*
X123235771Y-68199047D02*
X123235771Y-67960952D01*
X123235771Y-67960952D02*
X123283390Y-67865714D01*
X123283390Y-67865714D02*
X123331009Y-67818095D01*
X123331009Y-67818095D02*
X123426247Y-67770476D01*
X123426247Y-67770476D02*
X123664342Y-67770476D01*
X123664342Y-67770476D02*
X123759580Y-67818095D01*
X123759580Y-67818095D02*
X123807200Y-67865714D01*
X123807200Y-67865714D02*
X123854819Y-67960952D01*
X123854819Y-67960952D02*
X123854819Y-68199047D01*
X123854819Y-68199047D02*
X123807200Y-68294285D01*
X123807200Y-68294285D02*
X123759580Y-68341904D01*
D15*
%TO.C,U11*%
X154000000Y-106871000D02*
X151000000Y-106871000D01*
X154000000Y-109871000D02*
X151000000Y-109871000D01*
X150650000Y-106971000D02*
X150410000Y-106641000D01*
X150890000Y-106641000D01*
X150650000Y-106971000D01*
G36*
X150650000Y-106971000D02*
G01*
X150410000Y-106641000D01*
X150890000Y-106641000D01*
X150650000Y-106971000D01*
G37*
D16*
%TO.C,J1*%
X158965000Y-77686000D02*
X159715000Y-77686000D01*
X158965000Y-79336000D02*
X158965000Y-77686000D01*
X160465000Y-81936000D02*
X163465000Y-81936000D01*
X164215000Y-77686000D02*
X164965000Y-77686000D01*
X164965000Y-77686000D02*
X164965000Y-79336000D01*
X159566600Y-77036000D02*
G75*
G02*
X159363400Y-77036000I-101600J0D01*
G01*
X159363400Y-77036000D02*
G75*
G02*
X159566600Y-77036000I101600J0D01*
G01*
D15*
%TO.C,U2*%
X133290000Y-118170000D02*
X133290000Y-116840000D01*
X134620000Y-118170000D02*
X133290000Y-118170000D01*
X135890000Y-115510000D02*
X153730000Y-115510000D01*
X135890000Y-118170000D02*
X135890000Y-115510000D01*
X135890000Y-118170000D02*
X153730000Y-118170000D01*
X153730000Y-118170000D02*
X153730000Y-115510000D01*
D17*
%TO.C,U9*%
X110321000Y-108026000D02*
X110321000Y-110486000D01*
X110581000Y-107776000D02*
X113041000Y-107776000D01*
X113041000Y-110746000D02*
X110581000Y-110746000D01*
X113281000Y-110496000D02*
X113281000Y-108026000D01*
X110321000Y-108026000D02*
G75*
G02*
X110571000Y-107776000I249999J1D01*
G01*
X110571000Y-110746000D02*
G75*
G02*
X110321000Y-110496000I-1J249999D01*
G01*
X113031000Y-107776000D02*
G75*
G02*
X113281000Y-108026000I0J-250000D01*
G01*
X113281000Y-110496000D02*
G75*
G02*
X113031000Y-110746000I-250000J0D01*
G01*
D18*
X110266978Y-111313400D02*
G75*
G02*
X110083822Y-111313400I-91578J0D01*
G01*
X110083822Y-111313400D02*
G75*
G02*
X110266978Y-111313400I91578J0D01*
G01*
D15*
%TO.C,U6*%
X151070000Y-69910000D02*
X151070000Y-68580000D01*
X152400000Y-69910000D02*
X151070000Y-69910000D01*
X153670000Y-67250000D02*
X171510000Y-67250000D01*
X153670000Y-69910000D02*
X153670000Y-67250000D01*
X153670000Y-69910000D02*
X171510000Y-69910000D01*
X171510000Y-69910000D02*
X171510000Y-67250000D01*
%TO.C,U1*%
X124146000Y-118170000D02*
X124146000Y-116840000D01*
X125476000Y-118170000D02*
X124146000Y-118170000D01*
X126746000Y-115510000D02*
X131886000Y-115510000D01*
X126746000Y-118170000D02*
X126746000Y-115510000D01*
X126746000Y-118170000D02*
X131886000Y-118170000D01*
X131886000Y-118170000D02*
X131886000Y-115510000D01*
%TO.C,U3*%
X156404000Y-118424000D02*
X156404000Y-117094000D01*
X157734000Y-118424000D02*
X156404000Y-118424000D01*
X159004000Y-115764000D02*
X171764000Y-115764000D01*
X159004000Y-118424000D02*
X159004000Y-115764000D01*
X159004000Y-118424000D02*
X171764000Y-118424000D01*
X171764000Y-118424000D02*
X171764000Y-115764000D01*
D16*
%TO.C,JP2*%
X136276600Y-106072600D02*
X136276600Y-104955000D01*
X136733800Y-104497800D02*
X138257800Y-104497800D01*
X138257800Y-106529800D02*
X136733800Y-106529800D01*
X138715000Y-106072600D02*
X138715000Y-104955000D01*
X136276600Y-104955000D02*
G75*
G02*
X136733800Y-104497800I457201J-1D01*
G01*
X136733800Y-106529800D02*
G75*
G02*
X136276600Y-106072600I1J457201D01*
G01*
X138257800Y-104497800D02*
G75*
G02*
X138715000Y-104955000I0J-457200D01*
G01*
X138715000Y-106072600D02*
G75*
G02*
X138257800Y-106529800I-457200J0D01*
G01*
%TO.C,D1*%
X139139500Y-107732600D02*
X139139500Y-108685100D01*
D19*
%TO.C,U8*%
X156338500Y-107156000D02*
X158338500Y-107156000D01*
X156338500Y-108406000D02*
X156338500Y-107156000D01*
X156338500Y-108406000D02*
X158338500Y-108406000D01*
X158338500Y-107156000D02*
X158338500Y-108406000D01*
D16*
%TO.C,JP1*%
X136276600Y-102837400D02*
X136276600Y-101719800D01*
X136733800Y-101262600D02*
X138257800Y-101262600D01*
X138257800Y-103294600D02*
X136733800Y-103294600D01*
X138715000Y-102837400D02*
X138715000Y-101719800D01*
X136276600Y-101719800D02*
G75*
G02*
X136733800Y-101262600I457201J-1D01*
G01*
X136733800Y-103294600D02*
G75*
G02*
X136276600Y-102837400I1J457201D01*
G01*
X138257800Y-101262600D02*
G75*
G02*
X138715000Y-101719800I0J-457200D01*
G01*
X138715000Y-102837400D02*
G75*
G02*
X138257800Y-103294600I-457200J0D01*
G01*
%TO.C,U10*%
X160731540Y-104378809D02*
X164287540Y-104378809D01*
X160731540Y-109966809D02*
X160731540Y-104378809D01*
X164287540Y-104378809D02*
X164287540Y-109966809D01*
X164287540Y-109966809D02*
X160731540Y-109966809D01*
D20*
X160596000Y-103965000D02*
G75*
G02*
X160342000Y-103965000I-127000J0D01*
G01*
X160342000Y-103965000D02*
G75*
G02*
X160596000Y-103965000I127000J0D01*
G01*
D16*
%TO.C,J2*%
X158965000Y-84062600D02*
X159715000Y-84062600D01*
X158965000Y-85712600D02*
X158965000Y-84062600D01*
X160465000Y-88312600D02*
X163465000Y-88312600D01*
X164215000Y-84062600D02*
X164965000Y-84062600D01*
X164965000Y-84062600D02*
X164965000Y-85712600D01*
X159566600Y-83412600D02*
G75*
G02*
X159363400Y-83412600I-101600J0D01*
G01*
X159363400Y-83412600D02*
G75*
G02*
X159566600Y-83412600I101600J0D01*
G01*
D15*
%TO.C,U4*%
X118558000Y-73600000D02*
X126298000Y-73600000D01*
X118558000Y-76200000D02*
X118558000Y-73600000D01*
X118558000Y-78800000D02*
X118558000Y-77470000D01*
X119888000Y-78800000D02*
X118558000Y-78800000D01*
X121158000Y-76200000D02*
X118558000Y-76200000D01*
X121158000Y-78800000D02*
X121158000Y-76200000D01*
X121158000Y-78800000D02*
X126298000Y-78800000D01*
X126298000Y-78800000D02*
X126298000Y-73600000D01*
%TO.C,U12*%
X147908000Y-83204000D02*
X151668000Y-83204000D01*
X147908000Y-90024000D02*
X151668000Y-90024000D01*
X151668000Y-83204000D02*
X151668000Y-84464000D01*
X151668000Y-90024000D02*
X151668000Y-88764000D01*
X146628000Y-83304000D02*
X146388000Y-82974000D01*
X146868000Y-82974000D01*
X146628000Y-83304000D01*
G36*
X146628000Y-83304000D02*
G01*
X146388000Y-82974000D01*
X146868000Y-82974000D01*
X146628000Y-83304000D01*
G37*
%TO.C,U7*%
X169358000Y-87316000D02*
X170688000Y-87316000D01*
X169358000Y-88646000D02*
X169358000Y-87316000D01*
X169358000Y-89916000D02*
X169358000Y-95056000D01*
X169358000Y-89916000D02*
X171958000Y-89916000D01*
X169358000Y-95056000D02*
X174558000Y-95056000D01*
X171958000Y-87316000D02*
X174558000Y-87316000D01*
X171958000Y-89916000D02*
X171958000Y-87316000D01*
X174558000Y-87316000D02*
X174558000Y-95056000D01*
%TO.C,U5*%
X124400000Y-69910000D02*
X124400000Y-68580000D01*
X125730000Y-69910000D02*
X124400000Y-69910000D01*
X127000000Y-67250000D02*
X149920000Y-67250000D01*
X127000000Y-69910000D02*
X127000000Y-67250000D01*
X127000000Y-69910000D02*
X149920000Y-69910000D01*
X149920000Y-69910000D02*
X149920000Y-67250000D01*
%TD*%
M02*
