%TF.GenerationSoftware,KiCad,Pcbnew,8.0.5*%
%TF.CreationDate,2024-11-06T15:04:28-06:00*%
%TF.ProjectId,ArduinoUnoR4Shield,41726475-696e-46f5-956e-6f5234536869,1.0*%
%TF.SameCoordinates,Original*%
%TF.FileFunction,Soldermask,Bot*%
%TF.FilePolarity,Negative*%
%FSLAX46Y46*%
G04 Gerber Fmt 4.6, Leading zero omitted, Abs format (unit mm)*
G04 Created by KiCad (PCBNEW 8.0.5) date 2024-11-06 15:04:28*
%MOMM*%
%LPD*%
G01*
G04 APERTURE LIST*
%ADD10C,4.199890*%
%ADD11C,1.422000*%
%ADD12C,2.082800*%
G04 APERTURE END LIST*
D10*
%TO.C,H1*%
X120650000Y-68580000D03*
%TD*%
D11*
%TO.C,U2*%
X134620000Y-116840000D03*
X137160000Y-116840000D03*
X139700000Y-116840000D03*
X142240000Y-116840000D03*
X144780000Y-116840000D03*
X147320000Y-116840000D03*
X149860000Y-116840000D03*
X152400000Y-116840000D03*
%TD*%
D10*
%TO.C,H4*%
X121158000Y-116840000D03*
%TD*%
D11*
%TO.C,U6*%
X152400000Y-68580000D03*
X154940000Y-68580000D03*
X157480000Y-68580000D03*
X160020000Y-68580000D03*
X162560000Y-68580000D03*
X165100000Y-68580000D03*
X167640000Y-68580000D03*
X170180000Y-68580000D03*
%TD*%
D10*
%TO.C,H2*%
X172466000Y-83312000D03*
%TD*%
D11*
%TO.C,U1*%
X125476000Y-116840000D03*
X128016000Y-116840000D03*
X130556000Y-116840000D03*
%TD*%
%TO.C,U3*%
X157734000Y-117094000D03*
X160274000Y-117094000D03*
X162814000Y-117094000D03*
X165354000Y-117094000D03*
X167894000Y-117094000D03*
X170434000Y-117094000D03*
%TD*%
D12*
%TO.C,J5*%
X165064800Y-97830400D03*
%TD*%
%TO.C,J3*%
X150664800Y-104650800D03*
X153204800Y-104650800D03*
X155744800Y-104650800D03*
X158284800Y-104650800D03*
%TD*%
D11*
%TO.C,U4*%
X119888000Y-77470000D03*
X119888000Y-74930000D03*
X122428000Y-77470000D03*
X122428000Y-74930000D03*
X124968000Y-77470000D03*
X124968000Y-74930000D03*
%TD*%
D10*
%TO.C,H3*%
X172720000Y-112522000D03*
%TD*%
D12*
%TO.C,J4*%
X165064800Y-94950800D03*
%TD*%
D11*
%TO.C,U7*%
X170688000Y-88646000D03*
X173228000Y-88646000D03*
X170688000Y-91186000D03*
X173228000Y-91186000D03*
X170688000Y-93726000D03*
X173228000Y-93726000D03*
%TD*%
%TO.C,U5*%
X125730000Y-68580000D03*
X128270000Y-68580000D03*
X130810000Y-68580000D03*
X133350000Y-68580000D03*
X135890000Y-68580000D03*
X138430000Y-68580000D03*
X140970000Y-68580000D03*
X143510000Y-68580000D03*
X146050000Y-68580000D03*
X148590000Y-68580000D03*
%TD*%
M02*
